<svg id="uml" width="1064" height="630" xmlns="http://www.w3.org/2000/svg" class="classDiagram" style="background:#fff" viewBox="0 -47 1063.78125 629" role="graphics-document document" aria-roledescription="classDiagram"><style>#uml{font-family:Arial,Helvetica,sans-serif;font-size:15px;fill:#000000;}@keyframes edge-animation-frame{from{stroke-dashoffset:0;}}@keyframes dash{to{stroke-dashoffset:0;}}#uml .edge-animation-slow{stroke-dasharray:9,5!important;stroke-dashoffset:900;animation:dash 50s linear infinite;stroke-linecap:round;}#uml .edge-animation-fast{stroke-dasharray:9,5!important;stroke-dashoffset:900;animation:dash 20s linear infinite;stroke-linecap:round;}#uml .error-icon{fill:#552222;}#uml .error-text{fill:#552222;stroke:#552222;}#uml .edge-thickness-normal{stroke-width:1px;}#uml .edge-thickness-thick{stroke-width:3.5px;}#uml .edge-pattern-solid{stroke-dasharray:0;}#uml .edge-thickness-invisible{stroke-width:0;fill:none;}#uml .edge-pattern-dashed{stroke-dasharray:3;}#uml .edge-pattern-dotted{stroke-dasharray:2;}#uml .marker{fill:#666;stroke:#666;}#uml .marker.cross{stroke:#666;}#uml svg{font-family:Arial,Helvetica,sans-serif;font-size:15px;}#uml p{margin:0;}#uml g.classGroup text{fill:#999;stroke:none;font-family:Arial,Helvetica,sans-serif;font-size:10px;}#uml g.classGroup text .title{font-weight:bolder;}#uml .cluster-label text{fill:#333;}#uml .cluster-label span{color:#333;}#uml .cluster-label span p{background-color:transparent;}#uml .cluster rect{fill:hsl(0, 0%, 98.9215686275%);stroke:#707070;stroke-width:1px;}#uml .cluster text{fill:#333;}#uml .cluster span{color:#333;}#uml .nodeLabel,#uml .edgeLabel{color:#111111;}#uml .noteLabel .nodeLabel,#uml .noteLabel .edgeLabel{color:#fff;}#uml .edgeLabel .label rect{fill:#eee;}#uml .label text{fill:#111111;}#uml .labelBkg{background:#eee;}#uml .edgeLabel .label span{background:#eee;}#uml .classTitle{font-weight:bolder;}#uml .node rect,#uml .node circle,#uml .node ellipse,#uml .node polygon,#uml .node path{fill:#eee;stroke:#999;stroke-width:1;}#uml .divider{stroke:#999;stroke-width:1;}#uml g.clickable{cursor:pointer;}#uml g.classGroup rect{fill:#eee;stroke:#999;}#uml g.classGroup line{stroke:#999;stroke-width:1;}#uml .classLabel .box{stroke:none;stroke-width:0;fill:#eee;opacity:0.5;}#uml .classLabel .label{fill:#999;font-size:10px;}#uml .relation{stroke:#666;stroke-width:1;fill:none;}#uml .dashed-line{stroke-dasharray:3;}#uml .dotted-line{stroke-dasharray:1 2;}#uml [id$="-compositionStart"],#uml .composition{fill:#666!important;stroke:#666!important;stroke-width:1;}#uml [id$="-compositionEnd"],#uml .composition{fill:#666!important;stroke:#666!important;stroke-width:1;}#uml [id$="-dependencyStart"],#uml .dependency{fill:#666!important;stroke:#666!important;stroke-width:1;}#uml [id$="-dependencyEnd"],#uml .dependency{fill:#666!important;stroke:#666!important;stroke-width:1;}#uml [id$="-extensionStart"],#uml .extension{fill:transparent!important;stroke:#666!important;stroke-width:1;}#uml [id$="-extensionEnd"],#uml .extension{fill:transparent!important;stroke:#666!important;stroke-width:1;}#uml [id$="-aggregationStart"],#uml .aggregation{fill:transparent!important;stroke:#666!important;stroke-width:1;}#uml [id$="-aggregationEnd"],#uml .aggregation{fill:transparent!important;stroke:#666!important;stroke-width:1;}#uml [id$="-lollipopStart"],#uml .lollipop{fill:#eee!important;stroke:#666!important;stroke-width:1;}#uml [id$="-lollipopEnd"],#uml .lollipop{fill:#eee!important;stroke:#666!important;stroke-width:1;}#uml .edgeTerminals{font-size:11px;line-height:initial;}#uml .classTitleText{text-anchor:middle;font-size:18px;fill:#000000;}#uml .edgeLabel[data-look="neo"]{background-color:white;text-align:center;}#uml .edgeLabel[data-look="neo"] p{background-color:white;}#uml .edgeLabel[data-look="neo"] rect{opacity:0.5;background-color:white;fill:white;}#uml .label-icon{display:inline-block;height:1em;overflow:visible;vertical-align:-0.125em;}#uml .node .label-icon path{fill:currentColor;stroke:revert;stroke-width:revert;}#uml .node .neo-node{stroke:#999;}#uml [data-look="neo"].node rect,#uml [data-look="neo"].cluster rect,#uml [data-look="neo"].node polygon{stroke:url(#uml-gradient);filter:drop-shadow( 1px 2px 2px rgba(185,185,185,1));}#uml [data-look="neo"].swimlane.cluster rect{filter:none;}#uml [data-look="neo"].node path{stroke:url(#uml-gradient);stroke-width:1px;}#uml [data-look="neo"].node .outer-path{filter:drop-shadow( 1px 2px 2px rgba(185,185,185,1));}#uml [data-look="neo"].node .neo-line path{stroke:#999;filter:none;}#uml [data-look="neo"].node circle{stroke:url(#uml-gradient);filter:drop-shadow( 1px 2px 2px rgba(185,185,185,1));}#uml [data-look="neo"].node circle .state-start{fill:#000000;}#uml [data-look="neo"].icon-shape .icon{fill:url(#uml-gradient);filter:drop-shadow( 1px 2px 2px rgba(185,185,185,1));}#uml [data-look="neo"].icon-shape .icon-neo path{stroke:url(#uml-gradient);filter:drop-shadow( 1px 2px 2px rgba(185,185,185,1));}#uml :root{--mermaid-font-family:"trebuchet ms",verdana,arial,sans-serif;}</style><g><defs><marker id="uml_classDiagram-aggregationStart" class="marker aggregation classDiagram" refX="18" refY="7" markerWidth="190" markerHeight="240" orient="auto" markerUnits="userSpaceOnUse"><path d="M 18,7 L9,13 L1,7 L9,1 Z"></path></marker></defs><defs><marker id="uml_classDiagram-aggregationEnd" class="marker aggregation classDiagram" refX="1" refY="7" markerWidth="20" markerHeight="28" orient="auto" markerUnits="userSpaceOnUse"><path d="M 18,7 L9,13 L1,7 L9,1 Z"></path></marker></defs><defs><marker id="uml_classDiagram-aggregationStart-margin" class="marker aggregation classDiagram" refX="15" refY="7" markerWidth="190" markerHeight="240" orient="auto" markerUnits="userSpaceOnUse"><path d="M 18,7 L9,13 L1,7 L9,1 Z" style="stroke-width: 2;"></path></marker></defs><defs><marker id="uml_classDiagram-aggregationEnd-margin" class="marker aggregation classDiagram" refX="1" refY="7" markerWidth="20" markerHeight="28" orient="auto" markerUnits="userSpaceOnUse"><path d="M 18,7 L9,13 L1,7 L9,1 Z" style="stroke-width: 2;"></path></marker></defs><defs><marker id="uml_classDiagram-extensionStart" class="marker extension classDiagram" refX="18" refY="7" markerWidth="20" markerHeight="28" orient="auto" markerUnits="userSpaceOnUse"><path d="M 1,7 L18,13 V 1 Z"></path></marker></defs><defs><marker id="uml_classDiagram-extensionEnd" class="marker extension classDiagram" refX="1" refY="7" markerWidth="20" markerHeight="28" orient="auto" markerUnits="userSpaceOnUse"><path d="M 1,1 V 13 L18,7 Z"></path></marker></defs><marker id="uml_classDiagram-extensionStart-margin" class="marker extension classDiagram" refX="18" refY="7" markerWidth="20" markerHeight="28" orient="auto" markerUnits="userSpaceOnUse" viewBox="0 0 20 14"><polygon points="10,7 18,13 18,1" style="stroke-width: 2; stroke-dasharray: 0;"></polygon></marker><defs><marker id="uml_classDiagram-extensionEnd-margin" class="marker extension classDiagram" refX="9" refY="7" markerWidth="20" markerHeight="28" orient="auto" markerUnits="userSpaceOnUse" viewBox="0 0 20 14"><polygon points="10,1 10,13 18,7" style="stroke-width: 2; stroke-dasharray: 0;"></polygon></marker></defs><defs><marker id="uml_classDiagram-compositionStart" class="marker composition classDiagram" refX="18" refY="7" markerWidth="190" markerHeight="240" orient="auto" markerUnits="userSpaceOnUse"><path d="M 18,7 L9,13 L1,7 L9,1 Z"></path></marker></defs><defs><marker id="uml_classDiagram-compositionEnd" class="marker composition classDiagram" refX="1" refY="7" markerWidth="20" markerHeight="28" orient="auto" markerUnits="userSpaceOnUse"><path d="M 18,7 L9,13 L1,7 L9,1 Z"></path></marker></defs><defs><marker id="uml_classDiagram-compositionStart-margin" class="marker composition classDiagram" refX="15" refY="7" markerWidth="190" markerHeight="240" orient="auto" markerUnits="userSpaceOnUse"><path viewBox="0 0 15 15" d="M 18,7 L9,13 L1,7 L9,1 Z" style="stroke-width: 0;"></path></marker></defs><defs><marker id="uml_classDiagram-compositionEnd-margin" class="marker composition classDiagram" refX="3.5" refY="7" markerWidth="20" markerHeight="28" orient="auto" markerUnits="userSpaceOnUse"><path d="M 18,7 L9,13 L1,7 L9,1 Z" style="stroke-width: 0;"></path></marker></defs><defs><marker id="uml_classDiagram-dependencyStart" class="marker dependency classDiagram" refX="6" refY="7" markerWidth="190" markerHeight="240" orient="auto" markerUnits="userSpaceOnUse"><path d="M 5,7 L9,13 L1,7 L9,1 Z"></path></marker></defs><defs><marker id="uml_classDiagram-dependencyEnd" class="marker dependency classDiagram" refX="13" refY="7" markerWidth="20" markerHeight="28" orient="auto" markerUnits="userSpaceOnUse"><path d="M 18,7 L9,13 L14,7 L9,1 Z"></path></marker></defs><defs><marker id="uml_classDiagram-dependencyStart-margin" class="marker dependency classDiagram" refX="4" refY="7" markerWidth="190" markerHeight="240" orient="auto" markerUnits="userSpaceOnUse"><path d="M 5,7 L9,13 L1,7 L9,1 Z" style="stroke-width: 0;"></path></marker></defs><defs><marker id="uml_classDiagram-dependencyEnd-margin" class="marker dependency classDiagram" refX="16" refY="7" markerWidth="20" markerHeight="28" orient="auto" markerUnits="userSpaceOnUse"><path d="M 18,7 L9,13 L14,7 L9,1 Z" style="stroke-width: 0;"></path></marker></defs><defs><marker id="uml_classDiagram-lollipopStart" class="marker lollipop classDiagram" refX="13" refY="7" markerWidth="190" markerHeight="240" orient="auto" markerUnits="userSpaceOnUse"><circle fill="transparent" cx="7" cy="7" r="6"></circle></marker></defs><defs><marker id="uml_classDiagram-lollipopEnd" class="marker lollipop classDiagram" refX="1" refY="7" markerWidth="190" markerHeight="240" orient="auto" markerUnits="userSpaceOnUse"><circle fill="transparent" cx="7" cy="7" r="6"></circle></marker></defs><defs><marker id="uml_classDiagram-lollipopStart-margin" class="marker lollipop classDiagram" refX="13" refY="7" markerWidth="190" markerHeight="240" orient="auto" markerUnits="userSpaceOnUse"><circle fill="transparent" cx="7" cy="7" r="6" stroke-width="2"></circle></marker></defs><defs><marker id="uml_classDiagram-lollipopEnd-margin" class="marker lollipop classDiagram" refX="1" refY="7" markerWidth="190" markerHeight="240" orient="auto" markerUnits="userSpaceOnUse"><circle fill="transparent" cx="7" cy="7" r="6" stroke-width="2"></circle></marker></defs><g class="root"><g class="clusters"></g><g class="edgePaths"><path d="M420.77,122.187L378.741,133.989C336.713,145.791,252.655,169.396,210.626,185.364C168.598,201.333,168.598,209.667,168.598,213.833L168.598,218" id="uml-id_Employee_HourlyEmployee_1" class="edge-thickness-normal edge-pattern-solid relation" style=";;;" data-edge="true" data-et="edge" data-id="id_Employee_HourlyEmployee_1" data-points="W3sieCI6NDM3LjM3NzY4NTU0Njg3NSwieSI6MTE3LjUyMzAyMzA1MTEyNzIzfSx7IngiOjE2OC41OTc2NTYyNSwieSI6MTkzfSx7IngiOjE2OC41OTc2NTYyNSwieSI6MjE4fV0=" data-look="classic" marker-start="url(#uml_classDiagram-extensionStart)"></path><path d="M542.512,185.25L542.512,186.542C542.512,187.833,542.512,190.417,542.512,197.542C542.512,204.667,542.512,216.333,542.512,222.167L542.512,228" id="uml-id_Employee_SalariedEmployee_2" class="edge-thickness-normal edge-pattern-solid relation" style=";;;" data-edge="true" data-et="edge" data-id="id_Employee_SalariedEmployee_2" data-points="W3sieCI6NTQyLjUxMTcxODc1LCJ5IjoxNjh9LHsieCI6NTQyLjUxMTcxODc1LCJ5IjoxOTN9LHsieCI6NTQyLjUxMTcxODc1LCJ5IjoyMjh9XQ==" data-look="classic" marker-start="url(#uml_classDiagram-extensionStart)"></path><path d="M664.217,123.176L704.482,134.813C744.747,146.451,825.276,169.725,865.54,185.529C905.805,201.333,905.805,209.667,905.805,213.833L905.805,218" id="uml-id_Employee_Freelancer_3" class="edge-thickness-normal edge-pattern-solid relation" style=";;;" data-edge="true" data-et="edge" data-id="id_Employee_Freelancer_3" data-points="W3sieCI6NjQ3LjY0NTc1MTk1MzEyNSwieSI6MTE4LjM4NjE0NjgxNzg0NDU5fSx7IngiOjkwNS44MDQ2ODc1LCJ5IjoxOTN9LHsieCI6OTA1LjgwNDY4NzUsInkiOjIxOH1d" data-look="classic" marker-start="url(#uml_classDiagram-extensionStart)"></path><path d="M168.598,398.25L168.598,399.542C168.598,400.833,168.598,403.417,168.598,408.875C168.598,414.333,168.598,422.667,168.598,426.833L168.598,431" id="uml-id_HourlyEmployee_HourlyEmployeeWithCommission_4" class="edge-thickness-normal edge-pattern-solid relation" style=";;;" data-edge="true" data-et="edge" data-id="id_HourlyEmployee_HourlyEmployeeWithCommission_4" data-points="W3sieCI6MTY4LjU5NzY1NjI1LCJ5IjozODF9LHsieCI6MTY4LjU5NzY1NjI1LCJ5Ijo0MDZ9LHsieCI6MTY4LjU5NzY1NjI1LCJ5Ijo0MzF9XQ==" data-look="classic" marker-start="url(#uml_classDiagram-extensionStart)"></path><path d="M542.512,388.25L542.512,391.208C542.512,394.167,542.512,400.083,542.512,407.208C542.512,414.333,542.512,422.667,542.512,426.833L542.512,431" id="uml-id_SalariedEmployee_SalariedEmployeeWithCommission_5" class="edge-thickness-normal edge-pattern-solid relation" style=";;;" data-edge="true" data-et="edge" data-id="id_SalariedEmployee_SalariedEmployeeWithCommission_5" data-points="W3sieCI6NTQyLjUxMTcxODc1LCJ5IjozNzF9LHsieCI6NTQyLjUxMTcxODc1LCJ5Ijo0MDZ9LHsieCI6NTQyLjUxMTcxODc1LCJ5Ijo0MzF9XQ==" data-look="classic" marker-start="url(#uml_classDiagram-extensionStart)"></path><path d="M905.805,398.25L905.805,399.542C905.805,400.833,905.805,403.417,905.805,408.875C905.805,414.333,905.805,422.667,905.805,426.833L905.805,431" id="uml-id_Freelancer_FreelancerWithCommission_6" class="edge-thickness-normal edge-pattern-solid relation" style=";;;" data-edge="true" data-et="edge" data-id="id_Freelancer_FreelancerWithCommission_6" data-points="W3sieCI6OTA1LjgwNDY4NzUsInkiOjM4MX0seyJ4Ijo5MDUuODA0Njg3NSwieSI6NDA2fSx7IngiOjkwNS44MDQ2ODc1LCJ5Ijo0MzF9XQ==" data-look="classic" marker-start="url(#uml_classDiagram-extensionStart)"></path></g><g class="edgeLabels"><g class="edgeLabel"><g class="label" data-id="id_Employee_HourlyEmployee_1" transform="translate(0, 0)"><text y="-10.1" text-anchor="middle"><tspan class="text-outer-tspan row" x="0" y="-0.1em" dy="1.1em" text-anchor="middle"></tspan></text></g></g><g><rect class="background" style="stroke: none"></rect></g><g class="edgeLabel"><g class="label" data-id="id_Employee_SalariedEmployee_2" transform="translate(0, 0)"><text y="-10.1" text-anchor="middle"><tspan class="text-outer-tspan row" x="0" y="-0.1em" dy="1.1em" text-anchor="middle"></tspan></text></g></g><g><rect class="background" style="stroke: none"></rect></g><g class="edgeLabel"><g class="label" data-id="id_Employee_Freelancer_3" transform="translate(0, 0)"><text y="-10.1" text-anchor="middle"><tspan class="text-outer-tspan row" x="0" y="-0.1em" dy="1.1em" text-anchor="middle"></tspan></text></g></g><g><rect class="background" style="stroke: none"></rect></g><g class="edgeLabel"><g class="label" data-id="id_HourlyEmployee_HourlyEmployeeWithCommission_4" transform="translate(0, 0)"><text y="-10.1" text-anchor="middle"><tspan class="text-outer-tspan row" x="0" y="-0.1em" dy="1.1em" text-anchor="middle"></tspan></text></g></g><g><rect class="background" style="stroke: none"></rect></g><g class="edgeLabel"><g class="label" data-id="id_SalariedEmployee_SalariedEmployeeWithCommission_5" transform="translate(0, 0)"><text y="-10.1" text-anchor="middle"><tspan class="text-outer-tspan row" x="0" y="-0.1em" dy="1.1em" text-anchor="middle"></tspan></text></g></g><g><rect class="background" style="stroke: none"></rect></g><g class="edgeLabel"><g class="label" data-id="id_Freelancer_FreelancerWithCommission_6" transform="translate(0, 0)"><text y="-10.1" text-anchor="middle"><tspan class="text-outer-tspan row" x="0" y="-0.1em" dy="1.1em" text-anchor="middle"></tspan></text></g></g><g><rect class="background" style="stroke: none"></rect></g></g><g class="nodes"><g class="node default" id="uml-classId-Employee-0" data-look="classic" transform="translate(542.51171875, 88)"><g class="basic label-container outer-path"><path d="M-105.134033203125 -80 L105.134033203125 -80 L105.134033203125 80 L-105.134033203125 80" stroke="none" stroke-width="0" fill="#eee" style=""></path><path d="M-105.134033203125 -80 C-41.488922399290374 -80, 22.156188404544253 -80, 105.134033203125 -80 M-105.134033203125 -80 C-22.165459437527957 -80, 60.803114328069086 -80, 105.134033203125 -80 M105.134033203125 -80 C105.134033203125 -32.12961436126689, 105.134033203125 15.740771277466223, 105.134033203125 80 M105.134033203125 -80 C105.134033203125 -42.92765767456104, 105.134033203125 -5.85531534912208, 105.134033203125 80 M105.134033203125 80 C26.473087922333235 80, -52.18785735845853 80, -105.134033203125 80 M105.134033203125 80 C35.47695350292909 80, -34.180126197266816 80, -105.134033203125 80 M-105.134033203125 80 C-105.134033203125 20.10572102536539, -105.134033203125 -39.78855794926922, -105.134033203125 -80 M-105.134033203125 80 C-105.134033203125 35.89976090438331, -105.134033203125 -8.200478191233387, -105.134033203125 -80" stroke="#999" stroke-width="1.3" fill="none" stroke-dasharray="0 0" style=""></path></g><g class="annotation-group text" transform="translate(-35.0234375, -60)"><g class="label" style="" transform="translate(0,-8.5)"><g><rect class="background" style="stroke: none"></rect><text y="-10.1" style=""><tspan class="text-outer-tspan row" x="0" y="-0.1em" dy="1.1em"><tspan font-style="normal" class="text-inner-tspan" font-weight="normal">«abstract»</tspan></tspan></text></g></g></g><g class="label-group text" transform="translate(-35.759765625, -43)"><g class="label" style="font-weight: bolder" transform="translate(0,-8.5)"><g><rect class="background" style="stroke: none"></rect><text y="-10.1" style=""><tspan class="text-outer-tspan row" x="0" y="-0.1em" dy="1.1em" font-weight=""><tspan font-style="normal" class="text-inner-tspan" font-weight="">Employee</tspan></tspan></text></g></g></g><g class="members-group text" transform="translate(-93.134033203125, -2)"><g class="label" style="" transform="translate(0,-8.5)"><g><rect class="background" style="stroke: none"></rect><text y="-10.1" style=""><tspan class="text-outer-tspan row" x="0" y="-0.1em" dy="1.1em"><tspan font-style="normal" class="text-inner-tspan" font-weight="normal">+name</tspan><tspan font-style="normal" class="text-inner-tspan" font-weight="normal"> :</tspan><tspan font-style="normal" class="text-inner-tspan" font-weight="normal"> str</tspan></tspan></text></g></g><g class="label" style="" transform="translate(0,11.5)"><g><rect class="background" style="stroke: none"></rect><text y="-10.1" style=""><tspan class="text-outer-tspan row" x="0" y="-0.1em" dy="1.1em"><tspan font-style="normal" class="text-inner-tspan" font-weight="normal">+id</tspan><tspan font-style="normal" class="text-inner-tspan" font-weight="normal"> :</tspan><tspan font-style="normal" class="text-inner-tspan" font-weight="normal"> int</tspan></tspan></text></g></g></g><g class="methods-group text" transform="translate(-93.134033203125, 59)"><g class="label" style="font-style:italic;" transform="translate(0,-8.5)"><g><rect class="background" style="stroke: none"></rect><text y="-10.1" style=""><tspan class="text-outer-tspan row" x="0" y="-0.1em" dy="1.1em"><tspan font-style="italic" class="text-inner-tspan" font-weight="normal">+compute_pay()</tspan><tspan font-style="italic" class="text-inner-tspan" font-weight="normal"> :</tspan><tspan font-style="italic" class="text-inner-tspan" font-weight="normal"> float</tspan></tspan></text></g></g></g><g class="divider" style=""><path d="M-105.134033203125 -22 C-48.01213067134195 -21.999728337719045, 9.1097718604411 -21.99945667543809, 105.134033203125 -21.999 M-105.134033203125 -22 C-46.206903772410826 -21.99971975235975, 12.720225658303349 -21.999439504719493, 105.134033203125 -21.999" stroke="#999" stroke-width="1.3" fill="none" stroke-dasharray="0 0" style=""></path></g><g class="divider" style=""><path d="M-105.134033203125 39 C-21.87374307973589 39.000395972110965, 61.38654704365322 39.00079194422193, 105.134033203125 39.001 M-105.134033203125 39 C-28.979316214797663 39.00036217918531, 47.175400773529674 39.000724358370626, 105.134033203125 39.001" stroke="#999" stroke-width="1.3" fill="none" stroke-dasharray="0 0" style=""></path></g></g><g class="node default" id="uml-classId-HourlyEmployee-1" data-look="classic" transform="translate(168.59765625, 299.5)"><g class="basic label-container outer-path"><path d="M-140.592041015625 -81.5 L140.592041015625 -81.5 L140.592041015625 81.5 L-140.592041015625 81.5" stroke="none" stroke-width="0" fill="#eee" style=""></path><path d="M-140.592041015625 -81.5 C-52.488450050002044 -81.5, 35.61514091562091 -81.5, 140.592041015625 -81.5 M-140.592041015625 -81.5 C-77.92123843038759 -81.5, -15.250435845150179 -81.5, 140.592041015625 -81.5 M140.592041015625 -81.5 C140.592041015625 -16.673715446797942, 140.592041015625 48.152569106404115, 140.592041015625 81.5 M140.592041015625 -81.5 C140.592041015625 -24.665532278125987, 140.592041015625 32.168935443748026, 140.592041015625 81.5 M140.592041015625 81.5 C54.58157683361242 81.5, -31.428887348400167 81.5, -140.592041015625 81.5 M140.592041015625 81.5 C41.650813319473585 81.5, -57.29041437667783 81.5, -140.592041015625 81.5 M-140.592041015625 81.5 C-140.592041015625 23.95065749728016, -140.592041015625 -33.59868500543968, -140.592041015625 -81.5 M-140.592041015625 81.5 C-140.592041015625 20.308859947540554, -140.592041015625 -40.88228010491889, -140.592041015625 -81.5" stroke="#999" stroke-width="1.3" fill="none" stroke-dasharray="0 0" style=""></path></g><g class="annotation-group text" transform="translate(0, -61.5)"></g><g class="label-group text" transform="translate(-59.51220703125, -61.5)"><g class="label" style="font-weight: bolder" transform="translate(0,-8.5)"><g><rect class="background" style="stroke: none"></rect><text y="-10.1" style=""><tspan class="text-outer-tspan row" x="0" y="-0.1em" dy="1.1em" font-weight=""><tspan font-style="normal" class="text-inner-tspan" font-weight="">HourlyEmployee</tspan></tspan></text></g></g></g><g class="members-group text" transform="translate(-128.592041015625, -20.5)"><g class="label" style="" transform="translate(0,-8.5)"><g><rect class="background" style="stroke: none"></rect><text y="-10.1" style=""><tspan class="text-outer-tspan row" x="0" y="-0.1em" dy="1.1em"><tspan font-style="normal" class="text-inner-tspan" font-weight="normal">+pay_rate</tspan><tspan font-style="normal" class="text-inner-tspan" font-weight="normal"> :</tspan><tspan font-style="normal" class="text-inner-tspan" font-weight="normal"> float</tspan></tspan></text></g></g><g class="label" style="" transform="translate(0,11.5)"><g><rect class="background" style="stroke: none"></rect><text y="-10.1" style=""><tspan class="text-outer-tspan row" x="0" y="-0.1em" dy="1.1em"><tspan font-style="normal" class="text-inner-tspan" font-weight="normal">+hours_worked</tspan><tspan font-style="normal" class="text-inner-tspan" font-weight="normal"> :</tspan><tspan font-style="normal" class="text-inner-tspan" font-weight="normal"> int</tspan><tspan font-style="normal" class="text-inner-tspan" font-weight="normal"> =</tspan><tspan font-style="normal" class="text-inner-tspan" font-weight="normal"> 0</tspan></tspan></text></g></g><g class="label" style="" transform="translate(0,31.5)"><g><rect class="background" style="stroke: none"></rect><text y="-10.1" style=""><tspan class="text-outer-tspan row" x="0" y="-0.1em" dy="1.1em"><tspan font-style="normal" class="text-inner-tspan" font-weight="normal">+employer_cost</tspan><tspan font-style="normal" class="text-inner-tspan" font-weight="normal"> :</tspan><tspan font-style="normal" class="text-inner-tspan" font-weight="normal"> float</tspan><tspan font-style="normal" class="text-inner-tspan" font-weight="normal"> =</tspan><tspan font-style="normal" class="text-inner-tspan" font-weight="normal"> 1000</tspan></tspan></text></g></g></g><g class="methods-group text" transform="translate(-128.592041015625, 60.5)"><g class="label" style="" transform="translate(0,-8.5)"><g><rect class="background" style="stroke: none"></rect><text y="-10.1" style=""><tspan class="text-outer-tspan row" x="0" y="-0.1em" dy="1.1em"><tspan font-style="normal" class="text-inner-tspan" font-weight="normal">+compute_pay()</tspan><tspan font-style="normal" class="text-inner-tspan" font-weight="normal"> :</tspan><tspan font-style="normal" class="text-inner-tspan" font-weight="normal"> float</tspan></tspan></text></g></g></g><g class="divider" style=""><path d="M-140.592041015625 -40.5 C-44.93760590660797 -40.49965981561112, 50.71682920240906 -40.499319631222235, 140.592041015625 -40.499 M-140.592041015625 -40.5 C-39.305732836834096 -40.49963978647921, 61.98057534195681 -40.49927957295842, 140.592041015625 -40.499" stroke="#999" stroke-width="1.3" fill="none" stroke-dasharray="0 0" style=""></path></g><g class="divider" style=""><path d="M-140.592041015625 40.5 C-53.85061641934696 40.500308486255584, 32.890808176931074 40.50061697251117, 140.592041015625 40.501 M-140.592041015625 40.5 C-31.0403582572752 40.500389608408724, 78.5113245010746 40.50077921681744, 140.592041015625 40.501" stroke="#999" stroke-width="1.3" fill="none" stroke-dasharray="0 0" style=""></path></g></g><g class="node default" id="uml-classId-SalariedEmployee-2" data-look="classic" transform="translate(542.51171875, 299.5)"><g class="basic label-container outer-path"><path d="M-120.1397705078125 -71.5 L120.1397705078125 -71.5 L120.1397705078125 71.5 L-120.1397705078125 71.5" stroke="none" stroke-width="0" fill="#eee" style=""></path><path d="M-120.1397705078125 -71.5 C-48.37847363738625 -71.5, 23.38282323304 -71.5, 120.1397705078125 -71.5 M-120.1397705078125 -71.5 C-29.53886824609296 -71.5, 61.06203401562658 -71.5, 120.1397705078125 -71.5 M120.1397705078125 -71.5 C120.1397705078125 -33.476150053733754, 120.1397705078125 4.547699892532492, 120.1397705078125 71.5 M120.1397705078125 -71.5 C120.1397705078125 -32.65500675940299, 120.1397705078125 6.189986481194026, 120.1397705078125 71.5 M120.1397705078125 71.5 C58.48414299981187 71.5, -3.1714845081887546 71.5, -120.1397705078125 71.5 M120.1397705078125 71.5 C34.1624286711246 71.5, -51.8149131655633 71.5, -120.1397705078125 71.5 M-120.1397705078125 71.5 C-120.1397705078125 38.228590248641254, -120.1397705078125 4.957180497282508, -120.1397705078125 -71.5 M-120.1397705078125 71.5 C-120.1397705078125 33.91106795629239, -120.1397705078125 -3.677864087415216, -120.1397705078125 -71.5" stroke="#999" stroke-width="1.3" fill="none" stroke-dasharray="0 0" style=""></path></g><g class="annotation-group text" transform="translate(0, -51.5)"></g><g class="label-group text" transform="translate(-64.943115234375, -51.5)"><g class="label" style="font-weight: bolder" transform="translate(0,-8.5)"><g><rect class="background" style="stroke: none"></rect><text y="-10.1" style=""><tspan class="text-outer-tspan row" x="0" y="-0.1em" dy="1.1em" font-weight=""><tspan font-style="normal" class="text-inner-tspan" font-weight="">SalariedEmployee</tspan></tspan></text></g></g></g><g class="members-group text" transform="translate(-108.1397705078125, -10.5)"><g class="label" style="" transform="translate(0,-8.5)"><g><rect class="background" style="stroke: none"></rect><text y="-10.1" style=""><tspan class="text-outer-tspan row" x="0" y="-0.1em" dy="1.1em"><tspan font-style="normal" class="text-inner-tspan" font-weight="normal">+monthly_salary</tspan><tspan font-style="normal" class="text-inner-tspan" font-weight="normal"> :</tspan><tspan font-style="normal" class="text-inner-tspan" font-weight="normal"> float</tspan></tspan></text></g></g><g class="label" style="" transform="translate(0,11.5)"><g><rect class="background" style="stroke: none"></rect><text y="-10.1" style=""><tspan class="text-outer-tspan row" x="0" y="-0.1em" dy="1.1em"><tspan font-style="normal" class="text-inner-tspan" font-weight="normal">+percentage</tspan><tspan font-style="normal" class="text-inner-tspan" font-weight="normal"> :</tspan><tspan font-style="normal" class="text-inner-tspan" font-weight="normal"> float</tspan><tspan font-style="normal" class="text-inner-tspan" font-weight="normal"> =</tspan><tspan font-style="normal" class="text-inner-tspan" font-weight="normal"> 1</tspan></tspan></text></g></g></g><g class="methods-group text" transform="translate(-108.1397705078125, 50.5)"><g class="label" style="" transform="translate(0,-8.5)"><g><rect class="background" style="stroke: none"></rect><text y="-10.1" style=""><tspan class="text-outer-tspan row" x="0" y="-0.1em" dy="1.1em"><tspan font-style="normal" class="text-inner-tspan" font-weight="normal">+compute_pay()</tspan><tspan font-style="normal" class="text-inner-tspan" font-weight="normal"> :</tspan><tspan font-style="normal" class="text-inner-tspan" font-weight="normal"> float</tspan></tspan></text></g></g></g><g class="divider" style=""><path d="M-120.1397705078125 -30.5 C-38.36202853820848 -30.499659655825777, 43.415713431395545 -30.499319311651554, 120.1397705078125 -30.499 M-120.1397705078125 -30.5 C-39.218733891126575 -30.49966322127854, 41.70230272555935 -30.499326442557077, 120.1397705078125 -30.499" stroke="#999" stroke-width="1.3" fill="none" stroke-dasharray="0 0" style=""></path></g><g class="divider" style=""><path d="M-120.1397705078125 30.5 C-62.04727127385364 30.500241770476954, -3.9547720398947774 30.500483540953912, 120.1397705078125 30.501 M-120.1397705078125 30.5 C-36.994849578946756 30.500346034125826, 46.15007134991899 30.50069206825165, 120.1397705078125 30.501" stroke="#999" stroke-width="1.3" fill="none" stroke-dasharray="0 0" style=""></path></g></g><g class="node default" id="uml-classId-Freelancer-3" data-look="classic" transform="translate(905.8046875, 299.5)"><g class="basic label-container outer-path"><path d="M-109.6588134765625 -81.5 L109.6588134765625 -81.5 L109.6588134765625 81.5 L-109.6588134765625 81.5" stroke="none" stroke-width="0" fill="#eee" style=""></path><path d="M-109.6588134765625 -81.5 C-60.941080339319754 -81.5, -12.223347202077008 -81.5, 109.6588134765625 -81.5 M-109.6588134765625 -81.5 C-34.86645100105437 -81.5, 39.925911474453756 -81.5, 109.6588134765625 -81.5 M109.6588134765625 -81.5 C109.6588134765625 -28.358192800955806, 109.6588134765625 24.78361439808839, 109.6588134765625 81.5 M109.6588134765625 -81.5 C109.6588134765625 -17.044156021580434, 109.6588134765625 47.41168795683913, 109.6588134765625 81.5 M109.6588134765625 81.5 C50.24836537046976 81.5, -9.162082735622974 81.5, -109.6588134765625 81.5 M109.6588134765625 81.5 C30.70018762217856 81.5, -48.25843823220538 81.5, -109.6588134765625 81.5 M-109.6588134765625 81.5 C-109.6588134765625 39.21212269228889, -109.6588134765625 -3.075754615422227, -109.6588134765625 -81.5 M-109.6588134765625 81.5 C-109.6588134765625 33.54208519755669, -109.6588134765625 -14.415829604886625, -109.6588134765625 -81.5" stroke="#999" stroke-width="1.3" fill="none" stroke-dasharray="0 0" style=""></path></g><g class="annotation-group text" transform="translate(0, -61.5)"></g><g class="label-group text" transform="translate(-38.520751953125, -61.5)"><g class="label" style="font-weight: bolder" transform="translate(0,-8.5)"><g><rect class="background" style="stroke: none"></rect><text y="-10.1" style=""><tspan class="text-outer-tspan row" x="0" y="-0.1em" dy="1.1em" font-weight=""><tspan font-style="normal" class="text-inner-tspan" font-weight="">Freelancer</tspan></tspan></text></g></g></g><g class="members-group text" transform="translate(-97.6588134765625, -20.5)"><g class="label" style="" transform="translate(0,-8.5)"><g><rect class="background" style="stroke: none"></rect><text y="-10.1" style=""><tspan class="text-outer-tspan row" x="0" y="-0.1em" dy="1.1em"><tspan font-style="normal" class="text-inner-tspan" font-weight="normal">+pay_rate</tspan><tspan font-style="normal" class="text-inner-tspan" font-weight="normal"> :</tspan><tspan font-style="normal" class="text-inner-tspan" font-weight="normal"> float</tspan></tspan></text></g></g><g class="label" style="" transform="translate(0,11.5)"><g><rect class="background" style="stroke: none"></rect><text y="-10.1" style=""><tspan class="text-outer-tspan row" x="0" y="-0.1em" dy="1.1em"><tspan font-style="normal" class="text-inner-tspan" font-weight="normal">+hours_worked</tspan><tspan font-style="normal" class="text-inner-tspan" font-weight="normal"> :</tspan><tspan font-style="normal" class="text-inner-tspan" font-weight="normal"> int</tspan><tspan font-style="normal" class="text-inner-tspan" font-weight="normal"> =</tspan><tspan font-style="normal" class="text-inner-tspan" font-weight="normal"> 0</tspan></tspan></text></g></g><g class="label" style="" transform="translate(0,31.5)"><g><rect class="background" style="stroke: none"></rect><text y="-10.1" style=""><tspan class="text-outer-tspan row" x="0" y="-0.1em" dy="1.1em"><tspan font-style="normal" class="text-inner-tspan" font-weight="normal">+vat_number</tspan><tspan font-style="normal" class="text-inner-tspan" font-weight="normal"> :</tspan><tspan font-style="normal" class="text-inner-tspan" font-weight="normal"> str</tspan><tspan font-style="normal" class="text-inner-tspan" font-weight="normal"> =</tspan><tspan font-style="normal" class="text-inner-tspan" font-weight="normal"> ""</tspan></tspan></text></g></g></g><g class="methods-group text" transform="translate(-97.6588134765625, 60.5)"><g class="label" style="" transform="translate(0,-8.5)"><g><rect class="background" style="stroke: none"></rect><text y="-10.1" style=""><tspan class="text-outer-tspan row" x="0" y="-0.1em" dy="1.1em"><tspan font-style="normal" class="text-inner-tspan" font-weight="normal">+compute_pay()</tspan><tspan font-style="normal" class="text-inner-tspan" font-weight="normal"> :</tspan><tspan font-style="normal" class="text-inner-tspan" font-weight="normal"> float</tspan></tspan></text></g></g></g><g class="divider" style=""><path d="M-109.6588134765625 -40.5 C-45.67365392669286 -40.499708253456696, 18.311505623176785 -40.499416506913384, 109.6588134765625 -40.499 M-109.6588134765625 -40.5 C-63.564469824542776 -40.49978982836769, -17.470126172523052 -40.49957965673537, 109.6588134765625 -40.499" stroke="#999" stroke-width="1.3" fill="none" stroke-dasharray="0 0" style=""></path></g><g class="divider" style=""><path d="M-109.6588134765625 40.5 C-51.6198726986884 40.50026463418187, 6.419068079185706 40.500529268363735, 109.6588134765625 40.501 M-109.6588134765625 40.5 C-56.393521570886904 40.50024286826666, -3.1282296652113075 40.500485736533314, 109.6588134765625 40.501" stroke="#999" stroke-width="1.3" fill="none" stroke-dasharray="0 0" style=""></path></g></g><g class="node default" id="uml-classId-HourlyEmployeeWithCommission-4" data-look="classic" transform="translate(168.59765625, 502.5)"><g class="basic label-container outer-path"><path d="M-160.59765625 -71.5 L160.59765625 -71.5 L160.59765625 71.5 L-160.59765625 71.5" stroke="none" stroke-width="0" fill="#eee" style=""></path><path d="M-160.59765625 -71.5 C-65.38250090606279 -71.5, 29.832654437874425 -71.5, 160.59765625 -71.5 M-160.59765625 -71.5 C-32.35919574780448 -71.5, 95.87926475439104 -71.5, 160.59765625 -71.5 M160.59765625 -71.5 C160.59765625 -34.34297455435036, 160.59765625 2.8140508912992743, 160.59765625 71.5 M160.59765625 -71.5 C160.59765625 -26.090937665682986, 160.59765625 19.318124668634027, 160.59765625 71.5 M160.59765625 71.5 C80.16608513809506 71.5, -0.2654859738098878 71.5, -160.59765625 71.5 M160.59765625 71.5 C88.45645186119505 71.5, 16.315247472390098 71.5, -160.59765625 71.5 M-160.59765625 71.5 C-160.59765625 30.726532380635362, -160.59765625 -10.046935238729276, -160.59765625 -71.5 M-160.59765625 71.5 C-160.59765625 26.94471792486229, -160.59765625 -17.610564150275422, -160.59765625 -71.5" stroke="#999" stroke-width="1.3" fill="none" stroke-dasharray="0 0" style=""></path></g><g class="annotation-group text" transform="translate(0, -51.5)"></g><g class="label-group text" transform="translate(-120.3671875, -51.5)"><g class="label" style="font-weight: bolder" transform="translate(0,-8.5)"><g><rect class="background" style="stroke: none"></rect><text y="-10.1" style=""><tspan class="text-outer-tspan row" x="0" y="-0.1em" dy="1.1em" font-weight=""><tspan font-style="normal" class="text-inner-tspan" font-weight="">HourlyEmployeeWithCommission</tspan></tspan></text></g></g></g><g class="members-group text" transform="translate(-148.59765625, -10.5)"><g class="label" style="" transform="translate(0,-8.5)"><g><rect class="background" style="stroke: none"></rect><text y="-10.1" style=""><tspan class="text-outer-tspan row" x="0" y="-0.1em" dy="1.1em"><tspan font-style="normal" class="text-inner-tspan" font-weight="normal">+commission</tspan><tspan font-style="normal" class="text-inner-tspan" font-weight="normal"> :</tspan><tspan font-style="normal" class="text-inner-tspan" font-weight="normal"> float</tspan><tspan font-style="normal" class="text-inner-tspan" font-weight="normal"> =</tspan><tspan font-style="normal" class="text-inner-tspan" font-weight="normal"> 100</tspan></tspan></text></g></g><g class="label" style="" transform="translate(0,11.5)"><g><rect class="background" style="stroke: none"></rect><text y="-10.1" style=""><tspan class="text-outer-tspan row" x="0" y="-0.1em" dy="1.1em"><tspan font-style="normal" class="text-inner-tspan" font-weight="normal">+contracts_landed</tspan><tspan font-style="normal" class="text-inner-tspan" font-weight="normal"> :</tspan><tspan font-style="normal" class="text-inner-tspan" font-weight="normal"> int</tspan><tspan font-style="normal" class="text-inner-tspan" font-weight="normal"> =</tspan><tspan font-style="normal" class="text-inner-tspan" font-weight="normal"> 0</tspan></tspan></text></g></g></g><g class="methods-group text" transform="translate(-148.59765625, 50.5)"><g class="label" style="" transform="translate(0,-8.5)"><g><rect class="background" style="stroke: none"></rect><text y="-10.1" style=""><tspan class="text-outer-tspan row" x="0" y="-0.1em" dy="1.1em"><tspan font-style="normal" class="text-inner-tspan" font-weight="normal">+compute_pay()</tspan><tspan font-style="normal" class="text-inner-tspan" font-weight="normal"> :</tspan><tspan font-style="normal" class="text-inner-tspan" font-weight="normal"> float</tspan></tspan></text></g></g></g><g class="divider" style=""><path d="M-160.59765625 -30.5 C-83.07431463983154 -30.499758641117747, -5.5509730296630835 -30.49951728223549, 160.59765625 -30.499 M-160.59765625 -30.5 C-40.096861110557 -30.49962483638319, 80.403934028886 -30.499249672766382, 160.59765625 -30.499" stroke="#999" stroke-width="1.3" fill="none" stroke-dasharray="0 0" style=""></path></g><g class="divider" style=""><path d="M-160.59765625 30.5 C-33.64969254560779 30.50039523604101, 93.29827115878442 30.500790472082027, 160.59765625 30.501 M-160.59765625 30.5 C-74.7314230086474 30.500267333394667, 11.134810232705206 30.50053466678933, 160.59765625 30.501" stroke="#999" stroke-width="1.3" fill="none" stroke-dasharray="0 0" style=""></path></g></g><g class="node default" id="uml-classId-SalariedEmployeeWithCommission-5" data-look="classic" transform="translate(542.51171875, 502.5)"><g class="basic label-container outer-path"><path d="M-163.31640625 -71.5 L163.31640625 -71.5 L163.31640625 71.5 L-163.31640625 71.5" stroke="none" stroke-width="0" fill="#eee" style=""></path><path d="M-163.31640625 -71.5 C-59.52301942386839 -71.5, 44.27036740226322 -71.5, 163.31640625 -71.5 M-163.31640625 -71.5 C-33.9455742840114 -71.5, 95.4252576819772 -71.5, 163.31640625 -71.5 M163.31640625 -71.5 C163.31640625 -16.689484937740808, 163.31640625 38.121030124518384, 163.31640625 71.5 M163.31640625 -71.5 C163.31640625 -42.40751281106105, 163.31640625 -13.315025622122114, 163.31640625 71.5 M163.31640625 71.5 C72.74222575157513 71.5, -17.831954746849732 71.5, -163.31640625 71.5 M163.31640625 71.5 C63.79896265976366 71.5, -35.71848093047268 71.5, -163.31640625 71.5 M-163.31640625 71.5 C-163.31640625 38.49147244775823, -163.31640625 5.482944895516454, -163.31640625 -71.5 M-163.31640625 71.5 C-163.31640625 15.344569335323662, -163.31640625 -40.810861329352676, -163.31640625 -71.5" stroke="#999" stroke-width="1.3" fill="none" stroke-dasharray="0 0" style=""></path></g><g class="annotation-group text" transform="translate(0, -51.5)"></g><g class="label-group text" transform="translate(-125.8046875, -51.5)"><g class="label" style="font-weight: bolder" transform="translate(0,-8.5)"><g><rect class="background" style="stroke: none"></rect><text y="-10.1" style=""><tspan class="text-outer-tspan row" x="0" y="-0.1em" dy="1.1em" font-weight=""><tspan font-style="normal" class="text-inner-tspan" font-weight="">SalariedEmployeeWithCommission</tspan></tspan></text></g></g></g><g class="members-group text" transform="translate(-151.31640625, -10.5)"><g class="label" style="" transform="translate(0,-8.5)"><g><rect class="background" style="stroke: none"></rect><text y="-10.1" style=""><tspan class="text-outer-tspan row" x="0" y="-0.1em" dy="1.1em"><tspan font-style="normal" class="text-inner-tspan" font-weight="normal">+commission</tspan><tspan font-style="normal" class="text-inner-tspan" font-weight="normal"> :</tspan><tspan font-style="normal" class="text-inner-tspan" font-weight="normal"> float</tspan><tspan font-style="normal" class="text-inner-tspan" font-weight="normal"> =</tspan><tspan font-style="normal" class="text-inner-tspan" font-weight="normal"> 100</tspan></tspan></text></g></g><g class="label" style="" transform="translate(0,11.5)"><g><rect class="background" style="stroke: none"></rect><text y="-10.1" style=""><tspan class="text-outer-tspan row" x="0" y="-0.1em" dy="1.1em"><tspan font-style="normal" class="text-inner-tspan" font-weight="normal">+contracts_landed</tspan><tspan font-style="normal" class="text-inner-tspan" font-weight="normal"> :</tspan><tspan font-style="normal" class="text-inner-tspan" font-weight="normal"> int</tspan><tspan font-style="normal" class="text-inner-tspan" font-weight="normal"> =</tspan><tspan font-style="normal" class="text-inner-tspan" font-weight="normal"> 0</tspan></tspan></text></g></g></g><g class="methods-group text" transform="translate(-151.31640625, 50.5)"><g class="label" style="" transform="translate(0,-8.5)"><g><rect class="background" style="stroke: none"></rect><text y="-10.1" style=""><tspan class="text-outer-tspan row" x="0" y="-0.1em" dy="1.1em"><tspan font-style="normal" class="text-inner-tspan" font-weight="normal">+compute_pay()</tspan><tspan font-style="normal" class="text-inner-tspan" font-weight="normal"> :</tspan><tspan font-style="normal" class="text-inner-tspan" font-weight="normal"> float</tspan></tspan></text></g></g></g><g class="divider" style=""><path d="M-163.31640625 -30.5 C-72.68665692513214 -30.499722533236536, 17.94309239973572 -30.499445066473076, 163.31640625 -30.499 M-163.31640625 -30.5 C-58.76977426187976 -30.499679926118908, 45.77685772624048 -30.49935985223782, 163.31640625 -30.499" stroke="#999" stroke-width="1.3" fill="none" stroke-dasharray="0 0" style=""></path></g><g class="divider" style=""><path d="M-163.31640625 30.5 C-52.548822629344315 30.500339119584382, 58.21876099131137 30.500678239168767, 163.31640625 30.501 M-163.31640625 30.5 C-62.775625542059046 30.50030780980006, 37.76515516588191 30.500615619600115, 163.31640625 30.501" stroke="#999" stroke-width="1.3" fill="none" stroke-dasharray="0 0" style=""></path></g></g><g class="node default" id="uml-classId-FreelancerWithCommission-6" data-look="classic" transform="translate(905.8046875, 502.5)"><g class="basic label-container outer-path"><path d="M-149.9765625 -71.5 L149.9765625 -71.5 L149.9765625 71.5 L-149.9765625 71.5" stroke="none" stroke-width="0" fill="#eee" style=""></path><path d="M-149.9765625 -71.5 C-61.53185326334969 -71.5, 26.912855973300623 -71.5, 149.9765625 -71.5 M-149.9765625 -71.5 C-72.77592093923857 -71.5, 4.424720621522852 -71.5, 149.9765625 -71.5 M149.9765625 -71.5 C149.9765625 -42.00897670863942, 149.9765625 -12.51795341727884, 149.9765625 71.5 M149.9765625 -71.5 C149.9765625 -38.055568670855365, 149.9765625 -4.61113734171073, 149.9765625 71.5 M149.9765625 71.5 C34.84729763835233 71.5, -80.28196722329534 71.5, -149.9765625 71.5 M149.9765625 71.5 C50.807413312057434 71.5, -48.36173587588513 71.5, -149.9765625 71.5 M-149.9765625 71.5 C-149.9765625 23.592139965210066, -149.9765625 -24.315720069579868, -149.9765625 -71.5 M-149.9765625 71.5 C-149.9765625 28.508574237777438, -149.9765625 -14.482851524445124, -149.9765625 -71.5" stroke="#999" stroke-width="1.3" fill="none" stroke-dasharray="0 0" style=""></path></g><g class="annotation-group text" transform="translate(0, -51.5)"></g><g class="label-group text" transform="translate(-99.125, -51.5)"><g class="label" style="font-weight: bolder" transform="translate(0,-8.5)"><g><rect class="background" style="stroke: none"></rect><text y="-10.1" style=""><tspan class="text-outer-tspan row" x="0" y="-0.1em" dy="1.1em" font-weight=""><tspan font-style="normal" class="text-inner-tspan" font-weight="">FreelancerWithCommission</tspan></tspan></text></g></g></g><g class="members-group text" transform="translate(-137.9765625, -10.5)"><g class="label" style="" transform="translate(0,-8.5)"><g><rect class="background" style="stroke: none"></rect><text y="-10.1" style=""><tspan class="text-outer-tspan row" x="0" y="-0.1em" dy="1.1em"><tspan font-style="normal" class="text-inner-tspan" font-weight="normal">+commission</tspan><tspan font-style="normal" class="text-inner-tspan" font-weight="normal"> :</tspan><tspan font-style="normal" class="text-inner-tspan" font-weight="normal"> float</tspan><tspan font-style="normal" class="text-inner-tspan" font-weight="normal"> =</tspan><tspan font-style="normal" class="text-inner-tspan" font-weight="normal"> 100</tspan></tspan></text></g></g><g class="label" style="" transform="translate(0,11.5)"><g><rect class="background" style="stroke: none"></rect><text y="-10.1" style=""><tspan class="text-outer-tspan row" x="0" y="-0.1em" dy="1.1em"><tspan font-style="normal" class="text-inner-tspan" font-weight="normal">+contracts_landed</tspan><tspan font-style="normal" class="text-inner-tspan" font-weight="normal"> :</tspan><tspan font-style="normal" class="text-inner-tspan" font-weight="normal"> int</tspan><tspan font-style="normal" class="text-inner-tspan" font-weight="normal"> =</tspan><tspan font-style="normal" class="text-inner-tspan" font-weight="normal"> 0</tspan></tspan></text></g></g></g><g class="methods-group text" transform="translate(-137.9765625, 50.5)"><g class="label" style="" transform="translate(0,-8.5)"><g><rect class="background" style="stroke: none"></rect><text y="-10.1" style=""><tspan class="text-outer-tspan row" x="0" y="-0.1em" dy="1.1em"><tspan font-style="normal" class="text-inner-tspan" font-weight="normal">+compute_pay()</tspan><tspan font-style="normal" class="text-inner-tspan" font-weight="normal"> :</tspan><tspan font-style="normal" class="text-inner-tspan" font-weight="normal"> float</tspan></tspan></text></g></g></g><g class="divider" style=""><path d="M-149.9765625 -30.5 C-83.62737378603657 -30.49977880147535, -17.278185072073143 -30.499557602950702, 149.9765625 -30.499 M-149.9765625 -30.5 C-70.97415235334343 -30.499736617479325, 8.028257793313145 -30.49947323495865, 149.9765625 -30.499" stroke="#999" stroke-width="1.3" fill="none" stroke-dasharray="0 0" style=""></path></g><g class="divider" style=""><path d="M-149.9765625 30.5 C-41.42615516639786 30.50036189123662, 67.12425216720428 30.500723782473237, 149.9765625 30.501 M-149.9765625 30.5 C-76.79977851912385 30.500243960732135, -3.6229945382476956 30.50048792146427, 149.9765625 30.501" stroke="#999" stroke-width="1.3" fill="none" stroke-dasharray="0 0" style=""></path></g></g></g></g></g><defs><filter id="uml-drop-shadow" height="130%" width="130%"><feDropShadow dx="4" dy="4" stdDeviation="0" flood-opacity="0.06" flood-color="#000000"></feDropShadow></filter></defs><defs><filter id="uml-drop-shadow-small" height="150%" width="150%"><feDropShadow dx="2" dy="2" stdDeviation="0" flood-opacity="0.06" flood-color="#000000"></feDropShadow></filter></defs><linearGradient id="uml-gradient" gradientUnits="objectBoundingBox" x1="0%" y1="0%" x2="100%" y2="0%"><stop offset="0%" stop-color="hsl(0, 0%, 83.3333333333%)" stop-opacity="1"></stop><stop offset="100%" stop-color="hsl(0, 0%, 88.9215686275%)" stop-opacity="1"></stop></linearGradient><text text-anchor="middle" x="531.890625" y="-25" class="classDiagramTitleText">Inheritance design - employee compensation</text></svg>